{
  "accessors": [
    {
      "bufferView": 2,
      "componentType": 5126,
      "count": 8331,
      "max": [
        35.43134307861328,
        167.37457275390625,
        15.710512161254883
      ],
      "min": [
        -35.5697135925293,
        1.0843448638916016,
        -24.750932693481445
      ],
      "type": "VEC3"
    },
    {
      "bufferView": 2,
      "byteOffset": 99972,
      "componentType": 5126,
      "count": 8331,
      "max": [
        0.9999845027923584,
        0.9999678730964661,
        0.9999355673789978
      ],
      "min": [
        -0.9997329711914063,
        -0.9999976754188538,
        -0.9999579191207886
      ],
      "type": "VEC3"
    },
    {
      "bufferView": 3,
      "componentType": 5126,
      "count": 8331,
      "max": [
        0.9999265074729919,
        0.9999241232872009,
        0.99988853931427,
        1.0
      ],
      "min": [
        -0.9999046325683594,
        -0.9999750852584839,
        -0.9999906420707703,
        -1.0
      ],
      "type": "VEC4"
    },
    {
      "bufferView": 1,
      "componentType": 5126,
      "count": 8331,
      "max": [
        1.002771258354187,
        0.995415985584259
      ],
      "min": [
        0.008684379979968071,
        0.009465456008911133
      ],
      "type": "VEC2"
    },
    {
      "bufferView": 0,
      "componentType": 5125,
      "count": 42306,
      "type": "SCALAR"
    },
    {
      "bufferView": 2,
      "byteOffset": 199944,
      "componentType": 5126,
      "count": 18130,
      "max": [
        37.061729431152344,
        171.88430786132813,
        55.60435485839844
      ],
      "min": [
        -48.8590202331543,
        38.80615234375,
        -64.85610961914063
      ],
      "type": "VEC3"
    },
    {
      "bufferView": 2,
      "byteOffset": 417504,
      "componentType": 5126,
      "count": 18130,
      "max": [
        0.9999769330024719,
        0.9997246265411377,
        0.9999840259552002
      ],
      "min": [
        -0.9999958276748657,
        -0.9999635815620422,
        -0.9999086260795593
      ],
      "type": "VEC3"
    },
    {
      "bufferView": 3,
      "byteOffset": 133296,
      "componentType": 5126,
      "count": 18130,
      "max": [
        0.9999099373817444,
        0.9999848008155823,
        0.9999836087226868,
        1.0
      ],
      "min": [
        -0.9999886155128479,
        -0.9999913573265076,
        -0.9999065399169922,
        -1.0
      ],
      "type": "VEC4"
    },
    {
      "bufferView": 1,
      "byteOffset": 66648,
      "componentType": 5126,
      "count": 18130,
      "max": [
        0.998046875,
        0.9784263372421265
      ],
      "min": [
        0.001953125,
        0.001953125
      ],
      "type": "VEC2"
    },
    {
      "bufferView": 0,
      "byteOffset": 169224,
      "componentType": 5125,
      "count": 94767,
      "type": "SCALAR"
    },
    {
      "bufferView": 2,
      "byteOffset": 635064,
      "componentType": 5126,
      "count": 8324,
      "max": [
        12.086559295654297,
        184.11898803710938,
        5.745651721954346
      ],
      "min": [
        -9.458280563354492,
        155.87452697753906,
        -15.244231224060059
      ],
      "type": "VEC3"
    },
    {
      "bufferView": 2,
      "byteOffset": 734952,
      "componentType": 5126,
      "count": 8324,
      "max": [
        0.9999741911888123,
        0.9999099373817444,
        0.9998412728309631
      ],
      "min": [
        -0.9999490976333618,
        -0.9986887574195862,
        -0.9999244213104248
      ],
      "type": "VEC3"
    },
    {
      "bufferView": 3,
      "byteOffset": 423376,
      "componentType": 5126,
      "count": 8324,
      "max": [
        0.9999778866767883,
        0.999969482421875,
        0.9991649985313416,
        1.0
      ],
      "min": [
        -0.9998103380203247,
        -0.9998648762702942,
        -0.9992955923080444,
        -1.0
      ],
      "type": "VEC4"
    },
    {
      "bufferView": 1,
      "byteOffset": 211688,
      "componentType": 5126,
      "count": 8324,
      "max": [
        0.9938201308250427,
        0.99609375
      ],
      "min": [
        0.00390625,
        0.0039040236733853817
      ],
      "type": "VEC2"
    },
    {
      "bufferView": 0,
      "byteOffset": 548292,
      "componentType": 5125,
      "count": 38826,
      "type": "SCALAR"
    },
    {
      "bufferView": 2,
      "byteOffset": 834840,
      "componentType": 5126,
      "count": 14380,
      "max": [
        45.29936981201172,
        181.89071655273438,
        47.95926284790039
      ],
      "min": [
        -33.55195617675781,
        79.57833862304688,
        -21.687379837036133
      ],
      "type": "VEC3"
    },
    {
      "bufferView": 2,
      "byteOffset": 1007400,
      "componentType": 5126,
      "count": 14380,
      "max": [
        0.9999567270278931,
        0.9998760223388672,
        0.9999933838844299
      ],
      "min": [
        -0.9999148845672607,
        -0.9993993639945984,
        -0.9996563196182251
      ],
      "type": "VEC3"
    },
    {
      "bufferView": 3,
      "byteOffset": 556560,
      "componentType": 5126,
      "count": 14380,
      "max": [
        0.996769368648529,
        0.9996241927146912,
        0.9998590350151062,
        1.0
      ],
      "min": [
        -0.9999759793281555,
        -0.9988733530044556,
        -0.9997497200965881,
        -1.0
      ],
      "type": "VEC4"
    },
    {
      "bufferView": 1,
      "byteOffset": 278280,
      "componentType": 5126,
      "count": 14380,
      "max": [
        0.9957229495048523,
        0.9597107172012329
      ],
      "min": [
        0.0004783426702488214,
        0.0040170177817344666
      ],
      "type": "VEC2"
    },
    {
      "bufferView": 0,
      "byteOffset": 703596,
      "componentType": 5125,
      "count": 83238,
      "type": "SCALAR"
    },
    {
      "bufferView": 2,
      "byteOffset": 1179960,
      "componentType": 5126,
      "count": 60,
      "max": [
        76.23242950439453,
        2.272735834121704,
        67.81937408447266
      ],
      "min": [
        -68.7196044921875,
        -7.278562545776367,
        -77.13264465332031
      ],
      "type": "VEC3"
    },
    {
      "bufferView": 2,
      "byteOffset": 1180680,
      "componentType": 5126,
      "count": 60,
      "max": [
        0.9999394416809082,
        0.9999768137931824,
        0.9999393820762634
      ],
      "min": [
        -0.9999394416809082,
        4.4617077946895733e-05,
        -0.9999393820762634
      ],
      "type": "VEC3"
    },
    {
      "bufferView": 3,
      "byteOffset": 786640,
      "componentType": 5126,
      "count": 60,
      "max": [
        0.9999394416809082,
        0.9863917827606201,
        0.9999394416809082,
        1.0
      ],
      "min": [
        -0.9999772906303406,
        -0.9862119555473328,
        -0.9999393820762634,
        1.0
      ],
      "type": "VEC4"
    },
    {
      "bufferView": 1,
      "byteOffset": 393320,
      "componentType": 5126,
      "count": 60,
      "max": [
        0.9879426956176758,
        0.9923375248908997
      ],
      "min": [
        0.011848807334899902,
        0.019986571744084358
      ],
      "type": "VEC2"
    },
    {
      "bufferView": 0,
      "byteOffset": 1036548,
      "componentType": 5125,
      "count": 186,
      "type": "SCALAR"
    },
    {
      "bufferView": 2,
      "byteOffset": 1181400,
      "componentType": 5126,
      "count": 3204,
      "max": [
        4.065672874450684,
        173.58660888671875,
        7.726719856262207
      ],
      "min": [
        -3.8740756511688232,
        170.88685607910156,
        5.050009250640869
      ],
      "type": "VEC3"
    },
    {
      "bufferView": 2,
      "byteOffset": 1219848,
      "componentType": 5126,
      "count": 3204,
      "max": [
        0.9980831146240234,
        0.9988054633140564,
        0.9993181228637695
      ],
      "min": [
        -0.9980827569961548,
        -0.9988052248954773,
        -0.9991774559020996
      ],
      "type": "VEC3"
    },
    {
      "bufferView": 3,
      "byteOffset": 787600,
      "componentType": 5126,
      "count": 3204,
      "max": [
        0.9648287892341614,
        0.9998847246170044,
        0.999247670173645,
        1.0
      ],
      "min": [
        -0.5315307974815369,
        -0.9996898770332336,
        -0.99944669008255,
        1.0
      ],
      "type": "VEC4"
    },
    {
      "bufferView": 1,
      "byteOffset": 393800,
      "componentType": 5126,
      "count": 3204,
      "max": [
        0.44620761275291443,
        0.9940703511238098
      ],
      "min": [
        0.0029616355895996094,
        0.49923840165138245
      ],
      "type": "VEC2"
    },
    {
      "bufferView": 0,
      "byteOffset": 1037292,
      "componentType": 5125,
      "count": 18432,
      "type": "SCALAR"
    }
  ],
  "asset": {
    "extras": {
      "author": "Mike_hbrt (https://sketchfab.com/Mike_hbrt)",
      "license": "CC-BY-4.0 (http://creativecommons.org/licenses/by/4.0/)",
      "source": "https://sketchfab.com/3d-models/cyberpunk-samurai-cf478bc95f8a4dbf90cb3d12101b9810",
      "title": "Cyberpunk samuraï"
    },
    "generator": "Sketchfab-12.64.0",
    "version": "2.0"
  },
  "bufferViews": [
    {
      "buffer": 0,
      "byteLength": 1111020,
      "name": "floatBufferViews",
      "target": 34963
    },
    {
      "buffer": 0,
      "byteLength": 419432,
      "byteOffset": 1111020,
      "byteStride": 8,
      "name": "floatBufferViews",
      "target": 34962
    },
    {
      "buffer": 0,
      "byteLength": 1258296,
      "byteOffset": 1530452,
      "byteStride": 12,
      "name": "floatBufferViews",
      "target": 34962
    },
    {
      "buffer": 0,
      "byteLength": 838864,
      "byteOffset": 2788748,
      "byteStride": 16,
      "name": "floatBufferViews",
      "target": 34962
    }
  ],
  "buffers": [
    {
      "byteLength": 3627612,
      "uri": "scene.bin"
    }
  ],
  "images": [
    {
      "uri": "textures/Vetements_baseColor.jpeg"
    },
    {
      "uri": "textures/Vetements_metallicRoughness.png"
    },
    {
      "uri": "textures/Vetements_normal.png"
    },
    {
      "uri": "textures/Accesoire_baseColor.jpeg"
    },
    {
      "uri": "textures/Accesoire_metallicRoughness.png"
    },
    {
      "uri": "textures/Accesoire_emissive.jpeg"
    },
    {
      "uri": "textures/Accesoire_normal.png"
    },
    {
      "uri": "textures/Hair1_baseColor.jpeg"
    },
    {
      "uri": "textures/Hair1_metallicRoughness.png"
    },
    {
      "uri": "textures/Hair1_normal.png"
    },
    {
      "uri": "textures/Skin_baseColor.jpeg"
    },
    {
      "uri": "textures/Skin_metallicRoughness.png"
    },
    {
      "uri": "textures/Skin_normal.png"
    },
    {
      "uri": "textures/lambert1_baseColor.jpeg"
    },
    {
      "uri": "textures/lambert1_metallicRoughness.png"
    },
    {
      "uri": "textures/lambert1_normal.png"
    },
    {
      "uri": "textures/blinn8_baseColor.jpeg"
    },
    {
      "uri": "textures/blinn8_metallicRoughness.png"
    },
    {
      "uri": "textures/blinn8_emissive.jpeg"
    },
    {
      "uri": "textures/blinn8_normal.png"
    }
  ],
  "materials": [
    {
      "doubleSided": true,
      "name": "Vetements",
      "normalTexture": {
        "index": 2
      },
      "occlusionTexture": {
        "index": 1
      },
      "pbrMetallicRoughness": {
        "baseColorTexture": {
          "index": 0
        },
        "metallicRoughnessTexture": {
          "index": 1
        },
        "roughnessFactor": 0.899934460166051
      }
    },
    {
      "doubleSided": true,
      "emissiveFactor": [
        1.0,
        1.0,
        1.0
      ],
      "emissiveTexture": {
        "index": 5
      },
      "name": "Accesoire",
      "normalTexture": {
        "index": 6
      },
      "occlusionTexture": {
        "index": 4
      },
      "pbrMetallicRoughness": {
        "baseColorTexture": {
          "index": 3
        },
        "metallicRoughnessTexture": {
          "index": 4
        }
      }
    },
    {
      "doubleSided": true,
      "name": "Hair1",
      "normalTexture": {
        "index": 9
      },
      "pbrMetallicRoughness": {
        "baseColorTexture": {
          "index": 7
        },
        "metallicFactor": 0.0,
        "metallicRoughnessTexture": {
          "index": 8
        }
      }
    },
    {
      "doubleSided": true,
      "name": "Skin",
      "normalTexture": {
        "index": 12
      },
      "occlusionTexture": {
        "index": 11
      },
      "pbrMetallicRoughness": {
        "baseColorTexture": {
          "index": 10
        },
        "metallicRoughnessTexture": {
          "index": 11
        }
      }
    },
    {
      "doubleSided": true,
      "name": "lambert1",
      "normalTexture": {
        "index": 15
      },
      "occlusionTexture": {
        "index": 14
      },
      "pbrMetallicRoughness": {
        "baseColorTexture": {
          "index": 13
        },
        "metallicRoughnessTexture": {
          "index": 14
        }
      }
    },
    {
      "doubleSided": true,
      "emissiveFactor": [
        0.6843205062987161,
        0.6843205062987161,
        0.6843205062987161
      ],
      "emissiveTexture": {
        "index": 18
      },
      "name": "blinn8",
      "normalTexture": {
        "index": 19
      },
      "pbrMetallicRoughness": {
        "baseColorTexture": {
          "index": 16
        },
        "metallicRoughnessTexture": {
          "index": 17
        }
      }
    }
  ],
  "meshes": [
    {
      "name": "vetement3_Vetements_0",
      "primitives": [
        {
          "attributes": {
            "NORMAL": 1,
            "POSITION": 0,
            "TANGENT": 2,
            "TEXCOORD_0": 3
          },
          "indices": 4,
          "material": 0,
          "mode": 4
        }
      ]
    },
    {
      "name": "vetement3_Accesoire_0",
      "primitives": [
        {
          "attributes": {
            "NORMAL": 6,
            "POSITION": 5,
            "TANGENT": 7,
            "TEXCOORD_0": 8
          },
          "indices": 9,
          "material": 1,
          "mode": 4
        }
      ]
    },
    {
      "name": "vetement3_Hair1_0",
      "primitives": [
        {
          "attributes": {
            "NORMAL": 11,
            "POSITION": 10,
            "TANGENT": 12,
            "TEXCOORD_0": 13
          },
          "indices": 14,
          "material": 2,
          "mode": 4
        }
      ]
    },
    {
      "name": "vetement3_Skin_0",
      "primitives": [
        {
          "attributes": {
            "NORMAL": 16,
            "POSITION": 15,
            "TANGENT": 17,
            "TEXCOORD_0": 18
          },
          "indices": 19,
          "material": 3,
          "mode": 4
        }
      ]
    },
    {
      "name": "vetement3_lambert1_0",
      "primitives": [
        {
          "attributes": {
            "NORMAL": 21,
            "POSITION": 20,
            "TANGENT": 22,
            "TEXCOORD_0": 23
          },
          "indices": 24,
          "material": 4,
          "mode": 4
        }
      ]
    },
    {
      "name": "Eyes_low_blinn8_0",
      "primitives": [
        {
          "attributes": {
            "NORMAL": 26,
            "POSITION": 25,
            "TANGENT": 27,
            "TEXCOORD_0": 28
          },
          "indices": 29,
          "material": 5,
          "mode": 4
        }
      ]
    }
  ],
  "nodes": [
    {
      "children": [
        1
      ],
      "matrix": [
        1.0,
        0.0,
        0.0,
        0.0,
        0.0,
        2.220446049250313e-16,
        -1.0,
        0.0,
        0.0,
        1.0,
        2.220446049250313e-16,
        0.0,
        0.0,
        0.0,
        0.0,
        1.0
      ],
      "name": "Sketchfab_model"
    },
    {
      "children": [
        2
      ],
      "matrix": [
        1.0,
        0.0,
        0.0,
        0.0,
        0.0,
        0.0,
        1.0,
        0.0,
        0.0,
        -1.0,
        0.0,
        0.0,
        0.0,
        0.0,
        0.0,
        1.0
      ],
      "name": "23797c8031a94cb580d663b1b3c4100d.fbx"
    },
    {
      "children": [
        3,
        9
      ],
      "name": "RootNode"
    },
    {
      "children": [
        4,
        5,
        6,
        7,
        8
      ],
      "name": "vetement3"
    },
    {
      "mesh": 0,
      "name": "vetement3_Vetements_0"
    },
    {
      "mesh": 1,
      "name": "vetement3_Accesoire_0"
    },
    {
      "mesh": 2,
      "name": "vetement3_Hair1_0"
    },
    {
      "mesh": 3,
      "name": "vetement3_Skin_0"
    },
    {
      "mesh": 4,
      "name": "vetement3_lambert1_0"
    },
    {
      "children": [
        10
      ],
      "matrix": [
        0.38433684814592894,
        0.047589331786414744,
        -0.9219655322501898,
        0.0,
        -0.019759564947574727,
        0.9988657558896771,
        0.04332160320240424,
        0.0,
        0.9229814444236331,
        0.0015675493824822972,
        0.3848412608317847,
        0.0,
        5.613683223724365,
        0.9220880270004272,
        -11.089644432067871,
        1.0
      ],
      "name": "Eyes_low"
    },
    {
      "mesh": 5,
      "name": "Eyes_low_blinn8_0"
    }
  ],
  "samplers": [
    {
      "magFilter": 9729,
      "minFilter": 9987,
      "wrapS": 10497,
      "wrapT": 10497
    }
  ],
  "scene": 0,
  "scenes": [
    {
      "name": "Sketchfab_Scene",
      "nodes": [
        0
      ]
    }
  ],
  "textures": [
    {
      "sampler": 0,
      "source": 0
    },
    {
      "sampler": 0,
      "source": 1
    },
    {
      "sampler": 0,
      "source": 2
    },
    {
      "sampler": 0,
      "source": 3
    },
    {
      "sampler": 0,
      "source": 4
    },
    {
      "sampler": 0,
      "source": 5
    },
    {
      "sampler": 0,
      "source": 6
    },
    {
      "sampler": 0,
      "source": 7
    },
    {
      "sampler": 0,
      "source": 8
    },
    {
      "sampler": 0,
      "source": 9
    },
    {
      "sampler": 0,
      "source": 10
    },
    {
      "sampler": 0,
      "source": 11
    },
    {
      "sampler": 0,
      "source": 12
    },
    {
      "sampler": 0,
      "source": 13
    },
    {
      "sampler": 0,
      "source": 14
    },
    {
      "sampler": 0,
      "source": 15
    },
    {
      "sampler": 0,
      "source": 16
    },
    {
      "sampler": 0,
      "source": 17
    },
    {
      "sampler": 0,
      "source": 18
    },
    {
      "sampler": 0,
      "source": 19
    }
  ]
}
